<svg width="834" height="66" viewBox="0 0 834 66" fill="none" xmlns="http://www.w3.org/2000/svg">
<rect x="1.5" y="2.48361" width="261.481" height="62.0164" stroke="black" stroke-width="3"/>
<path d="M287.329 2.48361H285.829V3.98361V63V64.5H287.329H545.81H547.31V63V3.98361V2.48361H545.81H287.329Z" stroke="black" stroke-width="3"/>
<path d="M571.658 2.48361H570.158V3.98361V63V64.5H571.658H830.138H831.638V63V3.98361V2.48361H830.138H571.658Z" stroke="black" stroke-width="3"/>
<line x1="3" y1="61.5" x2="89.1602" y2="61.5" stroke="black" stroke-width="3"/>
<line x1="176.182" y1="61.5" x2="262.342" y2="61.5" stroke="black" stroke-width="3"/>
<line x1="744.84" y1="31.9918" x2="831" y2="31.9918" stroke="black" stroke-width="3"/>
<line x1="372.404" y1="43.3279" x2="372.404" y2="63" stroke="black" stroke-width="3"/>
<line x1="458.565" y1="3" x2="458.565" y2="22.6721" stroke="black" stroke-width="3"/>
<line x1="656.733" y1="3" x2="656.733" y2="22.6721" stroke="black" stroke-width="3"/>
<line x1="656.733" y1="43.3279" x2="656.733" y2="63" stroke="black" stroke-width="3"/>
</svg>
