<svg width="965" height="66" viewBox="0 0 965 66" fill="none" xmlns="http://www.w3.org/2000/svg">
<rect x="1.5" y="2.48361" width="302.688" height="62.0164" stroke="white" stroke-width="3"/>
<path d="M332.657 2.48361H331.157V3.98361V63V64.5H332.657H632.344H633.844V63V3.98361V2.48361H632.344H332.657Z" stroke="white" stroke-width="3"/>
<path d="M662.313 2.48361H660.813V3.98361V63V64.5H662.313H962.001H963.501V63V3.98361V2.48361H962.001H662.313Z" stroke="white" stroke-width="3"/>
<line x1="3" y1="62.5" x2="102.896" y2="62.5" stroke="white" stroke-width="3"/>
<line x1="203.791" y1="62.5" x2="303.687" y2="62.5" stroke="white" stroke-width="3"/>
<line x1="863.104" y1="31.9918" x2="963" y2="31.9918" stroke="white" stroke-width="3"/>
<line x1="431.056" y1="43.3279" x2="431.056" y2="63" stroke="white" stroke-width="3"/>
<line x1="530.952" y1="3" x2="530.952" y2="22.6721" stroke="white" stroke-width="3"/>
<line x1="760.712" y1="3" x2="760.712" y2="22.6721" stroke="white" stroke-width="3"/>
<line x1="760.712" y1="43.3279" x2="760.712" y2="63" stroke="white" stroke-width="3"/>
</svg>
