<svg width="966" height="66" viewBox="0 0 966 66" fill="none" xmlns="http://www.w3.org/2000/svg">
<rect x="1.5" y="1.5" width="303" height="63" stroke="black" stroke-width="3"/>
<path d="M333 1.5H331.5V3V63V64.5H333H633H634.5V63V3V1.5H633H333Z" stroke="black" stroke-width="3"/>
<path d="M663 1.5H661.5V3V63V64.5H663H963H964.5V63V3V1.5H963H663Z" stroke="black" stroke-width="3"/>
<line x1="3" y1="61.5" x2="103" y2="61.5" stroke="black" stroke-width="3"/>
<line x1="204" y1="61.5" x2="304" y2="61.5" stroke="black" stroke-width="3"/>
<line x1="864" y1="31.5" x2="964" y2="31.5" stroke="black" stroke-width="3"/>
<line x1="431.5" y1="43" x2="431.5" y2="63" stroke="black" stroke-width="3"/>
<line x1="531.5" y1="2" x2="531.5" y2="22" stroke="black" stroke-width="3"/>
<line x1="761.5" y1="2" x2="761.5" y2="22" stroke="black" stroke-width="3"/>
<line x1="761.5" y1="43" x2="761.5" y2="63" stroke="black" stroke-width="3"/>
</svg>
